<svg width="50" height="50" viewBox="0 0 50 50" fill="none" xmlns="http://www.w3.org/2000/svg">
<rect width="50" height="50" rx="10" fill="#F5F5F5"/>
<path d="M25 20.75V38.25" stroke="#567C8D" stroke-width="2" stroke-linecap="round" stroke-linejoin="round"/>
<path d="M13.75 34.5C13.4185 34.5 13.1005 34.3683 12.8661 34.1339C12.6317 33.8995 12.5 33.5815 12.5 33.25V17C12.5 16.6685 12.6317 16.3505 12.8661 16.1161C13.1005 15.8817 13.4185 15.75 13.75 15.75H20C21.3261 15.75 22.5979 16.2768 23.5355 17.2145C24.4732 18.1521 25 19.4239 25 20.75C25 19.4239 25.5268 18.1521 26.4645 17.2145C27.4021 16.2768 28.6739 15.75 30 15.75H36.25C36.5815 15.75 36.8995 15.8817 37.1339 16.1161C37.3683 16.3505 37.5 16.6685 37.5 17V33.25C37.5 33.5815 37.3683 33.8995 37.1339 34.1339C36.8995 34.3683 36.5815 34.5 36.25 34.5H28.75C27.7554 34.5 26.8016 34.8951 26.0983 35.5983C25.3951 36.3016 25 37.2554 25 38.25C25 37.2554 24.6049 36.3016 23.9017 35.5983C23.1984 34.8951 22.2446 34.5 21.25 34.5H13.75Z" stroke="#567C8D" stroke-width="2" stroke-linecap="round" stroke-linejoin="round"/>
</svg>
